<svg width="200" height="200" viewBox="0 0 200 200" fill="none" xmlns="http://www.w3.org/2000/svg">
<path fill-rule="evenodd" clip-rule="evenodd" d="M135.764 100C134.968 100.853 134.142 101.678 133.288 102.472C133.318 101.652 133.333 100.828 133.333 99.9999C133.333 99.1723 133.318 98.3482 133.288 97.5279C134.143 98.3223 134.968 99.1469 135.764 100ZM145.494 84.6026C143.227 90.3474 139.904 95.5596 135.764 100C139.904 104.44 143.227 109.653 145.494 115.397C140.208 120.335 134.118 124.422 127.441 127.441C130.906 119.78 132.965 111.348 133.288 102.472C127.771 107.604 121.066 111.476 113.63 113.63C114.884 109.304 115.556 104.73 115.556 99.9999C115.556 95.2695 114.884 90.6961 113.63 86.3698C121.066 88.5239 127.771 92.3959 133.288 97.5279C132.965 88.6525 130.906 80.2198 127.441 72.5589C134.118 75.5783 140.208 79.6655 145.494 84.6026ZM146.963 53.0362C142.637 51.7828 138.064 51.111 133.333 51.111C127.001 51.111 120.951 52.3147 115.397 54.5058C110.912 49.7034 105.725 45.5645 100 42.2526C109.806 36.5799 121.191 33.3332 133.333 33.3332C134.161 33.3332 134.985 33.3483 135.805 33.3782C140.937 38.8957 144.809 45.601 146.963 53.0362ZM166.621 64.194C161.104 59.0622 154.399 55.1903 146.963 53.0362C148.217 57.3626 148.889 61.9362 148.889 66.6667C148.889 72.9986 147.685 79.0494 145.494 84.6026C150.296 89.088 154.435 94.2749 157.747 100C154.435 105.725 150.296 110.912 145.494 115.397C147.685 120.951 148.889 127.001 148.889 133.333C148.889 138.064 148.217 142.637 146.963 146.964C142.637 148.217 138.064 148.889 133.333 148.889C127.001 148.889 120.951 147.685 115.397 145.494C120.335 140.208 124.422 134.118 127.441 127.441C119.78 130.906 111.348 132.965 102.472 133.288C107.604 127.771 111.476 121.066 113.63 113.63C109.304 114.884 104.73 115.556 99.9999 115.556C95.2695 115.556 90.6961 114.884 86.3698 113.63C85.1163 109.304 84.4445 104.73 84.4445 99.9999C84.4445 95.2695 85.1163 90.696 86.3697 86.3697C90.696 85.1163 95.2695 84.4445 99.9999 84.4445C104.73 84.4445 109.304 85.1163 113.63 86.3698C111.476 78.9345 107.604 72.2292 102.472 66.7117C111.348 67.0353 119.781 69.0941 127.441 72.5589C124.422 65.8824 120.335 59.7921 115.397 54.5058C109.653 56.7724 104.44 60.0957 100 64.2361C95.5597 60.0957 90.3474 56.7724 84.6027 54.5058C89.0881 49.7034 94.275 45.5645 100 42.2526C90.1942 36.5799 78.8094 33.3332 66.6667 33.3332C65.839 33.3332 65.0148 33.3483 64.1944 33.3782C73.1208 23.7811 85.8592 17.7778 99.9999 17.7778C114.141 17.7778 126.879 23.7811 135.805 33.3782C144.681 33.7018 153.113 35.7604 160.774 39.2251C164.239 46.886 166.298 55.3187 166.621 64.194ZM160.774 160.775C183.905 150.314 200 127.036 200 99.9999C200 72.964 183.905 49.686 160.774 39.2251C150.313 16.0948 127.035 0 99.9999 0C72.9642 0 49.6863 16.0948 39.2254 39.2253C16.0949 49.6862 0 72.9642 0 99.9999C0 127.036 16.0948 150.314 39.2252 160.774C49.6861 183.905 72.9641 200 99.9999 200C127.036 200 150.313 183.905 160.774 160.775ZM135.806 166.622C140.937 161.104 144.809 154.399 146.963 146.964C154.399 144.81 161.104 140.938 166.621 135.806C166.298 144.681 164.239 153.114 160.774 160.775C153.114 164.239 144.681 166.298 135.806 166.622ZM64.1942 166.622C73.1206 176.219 85.8591 182.222 99.9999 182.222C114.141 182.222 126.879 176.219 135.806 166.622C134.985 166.651 134.161 166.667 133.333 166.667C121.191 166.667 109.806 163.42 100 157.747C105.725 154.435 110.912 150.296 115.397 145.494C109.653 143.227 104.44 139.904 100 135.764C100.853 134.968 101.678 134.142 102.472 133.288C101.652 133.318 100.828 133.333 99.9999 133.333C99.1722 133.333 98.3481 133.318 97.5278 133.288C92.3959 127.771 88.5239 121.066 86.3698 113.63C78.9345 111.476 72.2292 107.604 66.7117 102.472C66.6818 101.652 66.6667 100.828 66.6667 99.9999C66.6667 99.1722 66.6818 98.348 66.7117 97.5276C72.2292 92.3957 78.9345 88.5238 86.3697 86.3697C88.5238 78.9344 92.3957 72.2292 97.5276 66.7117C98.348 66.6818 99.1722 66.6667 99.9999 66.6667C100.828 66.6667 101.652 66.6818 102.472 66.7117C101.678 65.8575 100.853 65.0317 100 64.2361C99.1468 65.0317 98.3221 65.8575 97.5276 66.7117C88.6523 67.0353 80.2196 69.094 72.5587 72.5587C75.5781 65.8823 79.6654 59.792 84.6027 54.5058C79.0494 52.3147 72.9986 51.111 66.6667 51.111C61.9362 51.111 57.3627 51.7828 53.0363 53.0363C55.1905 45.601 59.0625 38.8957 64.1944 33.3782C55.319 33.7018 46.8863 35.7605 39.2254 39.2253C35.7606 46.8862 33.7019 55.3189 33.3783 64.1943C23.7812 73.1207 17.7778 85.8591 17.7778 99.9999C17.7778 114.141 23.7812 126.879 33.3783 135.805C33.7019 144.681 35.7606 153.114 39.2252 160.774C46.8862 164.239 55.3188 166.298 64.1942 166.622ZM53.0363 146.964C55.1904 154.399 59.0623 161.104 64.1942 166.622C65.0146 166.651 65.8389 166.667 66.6667 166.667C78.8094 166.667 90.1941 163.42 100 157.747C94.275 154.435 89.0881 150.296 84.6027 145.494C90.3474 143.227 95.5597 139.904 100 135.764C99.1469 134.968 98.3223 134.143 97.5278 133.288C88.6525 132.965 80.2198 130.906 72.5588 127.441C69.0941 119.78 67.0353 111.348 66.7117 102.472C65.8575 101.678 65.0317 100.853 64.2362 100C65.0317 99.1468 65.8575 98.3221 66.7117 97.5276C67.0353 88.6523 69.094 80.2196 72.5587 72.5587C65.8823 75.5781 59.7921 79.6654 54.5058 84.6026C52.3148 79.0494 51.111 72.9986 51.111 66.6667C51.111 61.9362 51.7829 57.3627 53.0363 53.0363C45.6011 55.1904 38.8958 59.0624 33.3783 64.1943C33.3484 65.0147 33.3333 65.8389 33.3333 66.6667C33.3333 78.8094 36.58 90.1941 42.2527 100C36.58 109.806 33.3333 121.191 33.3333 133.333C33.3333 134.161 33.3484 134.985 33.3783 135.805C38.8958 140.937 45.601 144.809 53.0363 146.964ZM54.5058 115.397C49.7034 110.912 45.5646 105.725 42.2527 100C45.5646 94.2749 49.7034 89.088 54.5058 84.6026C56.7725 90.3474 60.0958 95.5596 64.2362 100C60.0958 104.44 56.7725 109.653 54.5058 115.397ZM54.5058 115.397C52.3148 120.951 51.111 127.001 51.111 133.333C51.111 138.064 51.7828 142.637 53.0363 146.964C57.3627 148.217 61.9362 148.889 66.6667 148.889C72.9986 148.889 79.0494 147.685 84.6027 145.494C79.6655 140.208 75.5783 134.118 72.5588 127.441C65.8824 124.422 59.7921 120.335 54.5058 115.397ZM166.621 135.806C166.651 134.985 166.666 134.161 166.666 133.333C166.666 121.191 163.42 109.806 157.747 100C163.42 90.1941 166.666 78.8094 166.666 66.6667C166.666 65.8388 166.651 65.0145 166.621 64.194C176.219 73.1204 182.222 85.859 182.222 99.9999C182.222 114.141 176.219 126.879 166.621 135.806Z" fill="#FECE4E"/>
<path fill-rule="evenodd" clip-rule="evenodd" d="M135.844 100.081C139.985 104.521 143.308 109.733 145.575 115.478C150.377 110.993 154.516 105.806 157.828 100.081C154.516 94.3555 150.377 89.1686 145.575 84.6833C143.308 90.428 139.985 95.6403 135.844 100.081ZM42.3334 100.081C45.6453 105.806 49.7842 110.993 54.5866 115.478C56.8533 109.733 60.1765 104.521 64.3169 100.081C60.1765 95.6403 56.8532 90.428 54.5866 84.6833C49.7842 89.1686 45.6453 94.3555 42.3334 100.081Z" fill="#FDA618"/>
<path fill-rule="evenodd" clip-rule="evenodd" d="M100.081 64.3168C104.521 60.1764 109.733 56.8532 115.478 54.5865C110.993 49.7841 105.806 45.6452 100.081 42.3333C94.3555 45.6452 89.1686 49.7841 84.6833 54.5865C90.428 56.8531 95.6403 60.1764 100.081 64.3168ZM100.081 157.828C105.806 154.516 110.993 150.377 115.478 145.575C109.733 143.308 104.521 139.985 100.081 135.844C95.6403 139.985 90.428 143.308 84.6833 145.575C89.1686 150.377 94.3555 154.516 100.081 157.828Z" fill="#FDA618"/>
</svg>
