<svg xmlns="http://www.w3.org/2000/svg" width="437" height="99" viewBox="0 0 437 99" fill="none"><path d="M15.0015 14.4969C33.8474 -4.34989 64.1114 -4.82077 83.5282 13.0872L76.2565 20.3593C60.8184 6.42139 36.9962 6.88933 22.1202 21.7631C6.76455 37.1196 6.76455 62.0201 22.1202 77.3765C37.4789 92.7359 62.3811 92.7359 77.7338 77.3794C87.7424 67.3704 91.2267 53.3206 88.1897 40.4952L64.5205 64.1655C56.463 72.2057 43.4057 72.1998 35.3512 64.1449C27.2937 56.087 27.2937 43.0173 35.3512 34.9594C42.929 27.3813 54.9239 26.928 63.0285 33.585L55.8303 40.7836C51.7251 38.0231 46.1102 38.4527 42.4787 42.0873C38.3558 46.2104 38.3558 52.8939 42.4787 57.017C46.6016 61.1401 53.2701 61.1431 57.393 57.0376L91.6681 22.7608C103.996 41.9284 101.768 67.7324 85.0026 84.4985C65.6682 103.834 34.33 103.834 14.9956 84.4985C-4.33286 65.169 -4.33286 33.8293 15.0015 14.494V14.4969Z" fill="url(#paint0_linear_1649_3698)"></path><path d="M197.292 71.6426C196.291 72.1031 194.219 72.5635 192.147 72.5635C186.241 72.5635 181.268 68.9604 181.268 61.0519L181.188 7.64948H189.533L189.384 59.4403C189.384 63.6651 190.995 65.3458 195.14 65.3458C195.911 65.3458 196.751 65.2652 197.292 65.1961V71.6426Z" fill="#010101"></path><path d="M171.333 50.4497C171.333 64.3672 164.76 72.5635 153.663 72.5635C144.016 72.5635 138.214 66.9343 138.214 57.5409H138.042V91.3505H129.5V29.1992H138.042V43.37H138.214C138.214 33.9766 144.016 28.3474 153.663 28.3474C164.76 28.3474 171.333 36.5436 171.333 50.4612M162.63 50.4612C162.63 40.895 158.026 35.2659 150.083 35.2659C142.14 35.2659 137.455 41.2404 137.455 50.4612C137.455 59.682 142.151 65.6566 150.083 65.6566C158.014 65.6566 162.63 60.0274 162.63 50.4612Z" fill="#010101"></path><path d="M243.374 29.1992V71.7117H234.833V57.5409H234.66C234.66 66.9343 228.939 72.5635 219.211 72.5635C208.114 72.5635 201.541 64.3673 201.541 50.4497C201.541 36.5321 208.114 28.3359 219.211 28.3359C228.939 28.3359 234.66 33.965 234.66 43.3585H234.833V29.1877H243.374V29.1992ZM235.431 50.4497C235.431 41.2289 230.827 35.2543 222.884 35.2543C214.941 35.2543 210.336 40.8835 210.336 50.4497C210.336 60.0159 214.941 65.6451 222.884 65.6451C230.827 65.6451 235.431 59.6705 235.431 50.4497Z" fill="#010101"></path><path d="M252.939 57.9668H261.044C261.044 63.5154 264.889 66.8423 271.462 66.8423C278.035 66.8423 281.707 64.3673 281.707 60.0964C281.707 54.7205 276.078 53.7766 269.931 52.6714C262.586 51.4742 254.229 50.0238 254.229 40.803C254.229 33.0326 260.629 28.3359 271.473 28.3359C282.317 28.3359 288.718 33.5391 288.718 42.4146H280.613C280.613 37.1192 277.287 33.965 271.485 33.965C265.683 33.965 262.517 36.2674 262.517 40.1123C262.517 44.5557 267.64 45.4882 273.442 46.5127C281.039 47.8826 290.007 49.4137 290.007 59.3137C290.007 67.5905 283.088 72.5405 271.485 72.5405C259.881 72.5405 252.962 67.1646 252.962 57.9438" fill="#010101"></path><path d="M399.816 57.9668H407.921C407.921 63.5154 411.765 66.8423 418.339 66.8423C424.912 66.8423 428.584 64.3673 428.584 60.0964C428.584 54.7205 422.955 53.7766 416.808 52.6714C409.463 51.4742 401.106 50.0238 401.106 40.803C401.106 33.0326 407.506 28.3359 418.35 28.3359C429.194 28.3359 435.595 33.5391 435.595 42.4146H427.49C427.49 37.1192 424.163 33.965 418.362 33.965C412.56 33.965 409.394 36.2674 409.394 40.1123C409.394 44.5557 414.517 45.4882 420.319 46.5127C427.916 47.8826 436.884 49.4137 436.884 59.3137C436.884 67.5905 429.965 72.5405 418.362 72.5405C406.758 72.5405 399.839 67.1646 399.839 57.9438" fill="#010101"></path><path d="M309.877 35.427V58.5654C309.877 63.0895 312.605 65.6451 317.302 65.6451C319.351 65.6451 321.572 65.1385 323.276 64.2752V70.7677C320.882 71.8728 317.647 72.5635 314.573 72.5635C306.297 72.5635 301.347 67.6941 301.347 59.4173V35.427H294.773V29.1992H301.945V14.6831H310.487V18.2747C310.487 23.2247 307.413 27.1502 302.291 29.0266V29.1992H323.886V35.427H309.888H309.877Z" fill="#010101"></path><path d="M348.612 71.6426C347.611 72.1031 345.538 72.5635 343.466 72.5635C337.561 72.5635 332.588 68.9604 332.588 61.0519V29.1992H340.704V59.4403C340.704 63.6651 342.315 65.3457 346.459 65.3457C347.231 65.3457 348.071 65.2652 348.612 65.1961V71.6426Z" fill="#010101"></path><path d="M341.362 19.115C341.362 21.9009 339.106 24.1456 336.331 24.1456C333.557 24.1456 331.301 21.8893 331.301 19.115C331.301 16.3407 333.557 14.0845 336.331 14.0845C339.106 14.0845 341.362 16.3407 341.362 19.115Z" fill="#010101"></path><path d="M379.834 51.9808C385.487 59.0489 391.104 64.6435 396.699 71.6541H387.754C380.997 63.2391 376.726 59.3252 374.942 57.0574C372.317 53.3276 367.505 54.0644 364.708 56.9653V71.6541H355.867V7.64948H364.708V46.0868L382.229 29.1992H392.82L364.697 56.8041C368.208 53.6384 375.126 47.0538 379.811 51.9808" fill="#010101"></path><defs><linearGradient id="paint0_linear_1649_3698" x1="58.5984" y1="98.2545" x2="41.4044" y2="0.74765" gradientUnits="userSpaceOnUse"><stop stop-color="#00C1A1"></stop><stop offset="0.5" stop-color="#00B2B1"></stop><stop offset="1" stop-color="#003EAB"></stop></linearGradient></defs></svg>